# xmcd CD database file
#
# Track frame offsets:
#	150
#	26502
#	50385
#	78139
#	99794
#	122703
#	135944
#
# Disc length: 2101 seconds
#
# Revision: 1
# Processed by: cddbd v1.5.2PL0 Copyright (c) Steve Scherf et al.
# Submitted via: CDex 1.51
#
DISCID=44083307
DTITLE=Oscar D´Leon Y Su Orq - El Mas Grande Lp
DYEAR=1979
DGENRE=Salsa
TTITLE0=Me Dejo
TTITLE1=Bravo De Verdad
TTITLE2=Chancunche
TTITLE3=Mi Bajo Y Yo
TTITLE4=El Baile Del Suavecito
TTITLE5=Niebla Del Riachuelo
TTITLE6=Tu Son
EXTD=YEAR: 1979
EXTT0=
EXTT1=
EXTT2=
EXTT3=
EXTT4=
EXTT5=
EXTT6=
PLAYORDER=
